<?xml version="1.0" ?><svg xmlns="http://www.w3.org/2000/svg" xmlns:xlink="http://www.w3.org/1999/xlink" version="1.1" viewBox="0 0 512 512" style="enable-background:new 0 0 512 512;" xml:space="preserve"><style type="text/css">
	.st0{fill:#231A15;}
	.st1{fill:#FFE000;}
	.st2{fill:#BCA100;}
	.st3{fill:#FC0000;}
	.st4{fill:#AA0000;}
	.st5{fill:#F94343;}
	.st6{fill:#FFFFFF;}
	.st7{fill:#A58E07;}
	.st8{opacity:0.44;}
	.st9{fill:#756204;}
	.st10{opacity:0.64;}
	.st11{opacity:0.38;}
	.st12{fill:#5D5004;}
	.st13{fill:#B7A100;}
	.st14{fill:#1D4DFC;}
	.st15{fill:#143CAF;}
	.st16{opacity:0.59;}
	.st17{opacity:0.52;}
	.st18{fill:#FF7F1F;}
	.st19{fill:#C4570C;}
	.st20{fill:#B29904;}
	.st21{fill:#87720A;}
	.st22{fill:#DDDDDD;}
	.st23{opacity:0.51;}
	.st24{fill:#878787;}
	.st25{fill:#727272;}
	.st26{opacity:0.33;}
	.st27{opacity:0.46;}
	.st28{fill:#25CBF2;}
	.st29{fill:#0A8FA5;}
	.st30{opacity:0.58;}
	.st31{fill:#04889E;}
	.st32{fill:#035A63;}
	.st33{opacity:0.65;}
	.st34{opacity:0.39;}
	.st35{fill:#AB0000;}
	.st36{fill:#1987A1;}
	.st37{fill:#3F1F0A;}
	.st38{fill:#4DEEFF;}
	.st39{fill:#21B9C1;}
	.st40{fill:#BBF9FF;}
	.st41{fill:#64ACAF;}
	.st42{fill:#089FB7;}
	.st43{opacity:0.47;}
	.st44{opacity:0.42;}
	.st45{fill:#DBF7FC;}
	.st46{fill:#B2E7ED;}
	.st47{fill:#0FA2BA;}
	.st48{opacity:0.54;}
	.st49{fill:#8E7716;}
	.st50{fill:#191401;}
	.st51{fill:#382E02;}
	.st52{fill:#605106;}
	.st53{fill:#AFACA0;}
	.st54{fill:#BC0404;}
	.st55{fill:#750000;}
	.st56{fill:#A08B0D;}
	.st57{fill:#5B4C05;}
	.st58{opacity:0.4;}
	.st59{opacity:0.5;}
	.st60{fill:#FF8383;}
	.st61{fill:#FFF0A6;}
	.st62{fill:#E2C227;}
	.st63{fill:#AA9205;}
	.st64{fill:#FFEA71;}
	.st65{opacity:0.22;}
	.st66{fill:#B19B00;}
	.st67{fill:#1989A4;}
	.st68{fill:#13A0B7;}
	.st69{fill:#C4A805;}
	.st70{fill:#FFF3A9;}
	.st71{fill:#846E03;}
	.st72{fill:#2D2502;}
	.st73{opacity:0.36;}
	.st74{fill:#4DD307;}
	.st75{fill:#328402;}
	.st76{fill:#97FF5A;}
	.st77{fill:#7A6500;}
	.st78{fill:#246001;}
	.st79{fill:#359100;}
	.st80{fill:#968022;}
	.st81{fill:#4F420B;}
	.st82{fill:#FFED83;}
	.st83{fill:#BAA335;}
	.st84{fill:#8D0991;}
	.st85{fill:#4B044F;}
	.st86{fill:#CE15CE;}
	.st87{fill:#897502;}
	.st88{fill:#493D01;}
	.st89{fill:#C9C9C9;}
	.st90{fill:#2D280E;}
	.st91{fill:#378C06;}
	.st92{fill:#183A03;}
	.st93{fill:#94FF55;}
	.st94{fill:#2E7F04;}
	.st95{fill:#63AB39;}
	.st96{fill:#AA5F04;}
	.st97{fill:#633502;}
	.st98{fill:#EF9014;}
	.st99{fill:#A05A07;}
	.st100{fill:#05616B;}
	.st101{fill:#033335;}
	.st102{fill:#0E94AA;}
	.st103{fill:#035D66;}
	.st104{opacity:0.27;}
	.st105{opacity:0.43;}
	.st106{fill:#FFF203;}
	.st107{fill:#FFA300;}
	.st108{fill:#2B3030;}
	.st109{opacity:0.28;}
	.st110{fill:#FCD17A;}
	.st111{fill:#AF853A;}
	.st112{opacity:0.31;}
	.st113{fill:#B641FF;}
	.st114{fill:#700FBC;}
	.st115{fill:#F2D0B1;}
	.st116{fill:#AF835F;}
	.st117{fill:#C17540;}
	.st118{fill:#F2BA94;}
	.st119{fill:#592909;}
	.st120{fill:#2B1204;}
	.st121{fill:#894818;}
	.st122{fill:#512609;}
	.st123{fill:#FF7F15;}
	.st124{fill:#A04A0A;}
	.st125{fill:#B7865E;}
	.st126{fill:#70350E;}
	.st127{fill:#3A1805;}
	.st128{fill:#C1521B;}
	.st129{fill:#FFC7AE;}
	.st130{fill:#FF717F;}
	.st131{fill:#6E2F0F;}
	.st132{fill:#AC8675;}
	.st133{opacity:0.25;}
	.st134{opacity:0.32;}
	.st135{fill:#FFFCC5;}
	.st136{fill:#D1CA78;}
	.st137{fill:#D37733;}
	.st138{fill:#A04F18;}
	.st139{fill:#0ABFBA;}
	.st140{fill:#057F79;}
	.st141{fill:#15F9F9;}
	.st142{fill:#09B2AD;}
	.st143{fill:#B2B2B2;}
	.st144{fill:#FFF755;}
	.st145{fill:#BCB121;}
	.st146{fill:#F90368;}
	.st147{opacity:0.49;}
	.st148{fill:#B50857;}
	.st149{fill:#FF76B4;}
	.st150{fill:#F23091;}
	.st151{fill:#FFF800;}
	.st152{fill:#C9BF05;}
	.st153{fill:#FF8500;}
	.st154{fill:#A35507;}
	.st155{fill:#AA6E50;}
	.st156{fill:#723C25;}
	.st157{fill:#EAD4B9;}
	.st158{fill:#AA8D6F;}
	.st159{fill:#B7A8A5;}
	.st160{fill:#84726F;}
	.st161{fill:#77645F;}
	.st162{fill:#51403C;}
	.st163{fill:#EABBA7;}
	.st164{fill:#BC7F69;}
	.st165{fill:#7C5039;}
	.st166{fill:#442619;}
	.st167{fill:#B7AE04;}
	.st168{fill:#BAB108;}
	.st169{fill:#7A7105;}
	.st170{fill:#352B23;}
	.st171{fill:#050403;}
	.st172{fill:#706255;}
	.st173{fill:#44382E;}
	.st174{fill:#634319;}
	.st175{fill:#35210A;}
	.st176{fill:#2D1C08;}
	.st177{fill:#0A0601;}
	.st178{fill:#9E7443;}
	.st179{fill:#704D2A;}
	.st180{fill:#D8A73A;}
	.st181{fill:#A0741C;}
	.st182{fill:#3F2F28;}
	.st183{fill:#211410;}
	.st184{fill:#FF326C;}
	.st185{fill:#BC0749;}
	.st186{fill:#68390E;}
	.st187{fill:#A5632D;}
	.st188{fill:#3D1E05;}
	.st189{fill:#331A06;}
	.st190{fill:#110801;}
	.st191{fill:#160A02;}
	.st192{fill:#663514;}
	.st193{opacity:0.29;}
	.st194{fill:#FC001F;}
	.st195{fill:#AF021F;}
	.st196{fill:#C48622;}
	.st197{fill:#8C5910;}
	.st198{fill:#846D64;}
	.st199{fill:#513B35;}
	.st200{fill:#5B4842;}
	.st201{fill:#332522;}
	.st202{fill:#47332C;}
	.st203{fill:#543E38;}
	.st204{fill:#1E1412;}
	.st205{fill:#604C43;}
	.st206{fill:#D3896C;}
	.st207{fill:#FF001F;}
	.st208{fill:#AF0824;}
	.st209{fill:#A37462;}
	.st210{fill:#5E3E34;}
	.st211{fill:#874A38;}
	.st212{fill:#4C2218;}
	.st213{fill:#5B2B20;}
	.st214{fill:#210C09;}
	.st215{fill:#99001A;}
	.st216{fill:#A08A07;}
	.st217{fill:#A08904;}
	.st218{fill:#5B4C02;}
	.st219{fill:#CECAB7;}
	.st220{fill:#727068;}
	.st221{fill:#42403A;}
	.st222{fill:#B2B0A6;}
	.st223{fill:#726F62;}
	.st224{fill:#6B4F45;}
	.st225{fill:#3A261F;}
	.st226{fill:#777468;}
	.st227{fill:#474436;}
	.st228{fill:#B78B7D;}
	.st229{fill:#845A4E;}
	.st230{fill:#3A372D;}
	.st231{fill:#43CFFF;}
	.st232{fill:#13A0BC;}
</style><g id="_x33_5"><g><path class="st0" d="M253.69,503.35c-3.19,0-6.43-0.07-9.66-0.21c-15.88-0.69-30.4-2.5-43.18-5.38c-1.04-0.23-2.07-0.48-3.08-0.73    c-4.01-0.98-7.87-2.07-11.47-3.25c-0.75-0.24-1.49-0.49-2.21-0.74c-15.1-5.22-26.71-12.17-34.5-20.67l-0.15-0.16    c-7.16-7.9-10.48-16.69-9.38-24.77c0.01-0.04,0.01-0.08,0.02-0.13c0.06-0.42,0.15-0.89,0.26-1.4c0.01-0.06,0.04-0.18,0.07-0.3    c0.07-0.31,0.18-0.74,0.32-1.19l0.06-0.19c0.14-0.47,0.27-0.87,0.41-1.3l0.08-0.24c0.14-0.4,0.26-0.76,0.4-1.14l0.12-0.34    c0.14-0.37,0.29-0.78,0.45-1.19l0.2-0.51c0.14-0.35,0.3-0.76,0.47-1.18l2.78-6.48c0.01-0.02,0.02-0.04,0.03-0.06l0,0    c3-6.7,7.22-15.55,13.7-28.71l0.67-1.36c2.6-5.28,5.35-10.82,8.18-16.5c7.79-16.32,16.71-34.47,24.49-49.84    c12.26-25.71,16.05-36,17.17-40.08c-5.07-5.9-8.35-15.13-8.93-25.44c-0.08-0.95-0.14-1.93-0.17-2.93    c-0.04-1.38-0.02-2.77,0.06-4.14c0-0.04,0.01-0.12,0.01-0.18c0.04-0.6,0.09-1.21,0.15-1.83l0.04-0.41    c0.06-0.59,0.13-1.11,0.2-1.62l0.1-0.64c0.07-0.47,0.15-0.94,0.24-1.42l0.14-0.71c0.09-0.47,0.2-0.94,0.3-1.41l0.17-0.72    c0.12-0.5,0.25-1,0.39-1.5l0.03-0.11c0.04-0.14,0.08-0.28,0.12-0.42c0.01-0.03,0.02-0.07,0.03-0.09c0.01-0.04,0.02-0.08,0.04-0.12    c0,0,0-0.02,0.01-0.04c0.38-1.4,0.85-2.77,1.41-4.07c0.08-0.2,0.17-0.39,0.25-0.59c0.22-0.5,0.42-0.91,0.62-1.31    c0.14-0.29,0.26-0.52,0.38-0.75c0.31-0.58,0.62-1.1,0.93-1.6c3.25-5.15,8.03-8.85,13.96-10.84c-1.5-10.59-2.38-21.79-2.81-28.38    c-9.44-3.06-16.08-7.94-19.79-14.56c-0.01-0.02-0.03-0.05-0.04-0.07c-0.41-0.73-0.81-1.52-1.24-2.43    c-0.1-0.21-0.19-0.42-0.29-0.63l-0.05-0.11c-0.28-0.63-0.56-1.28-0.82-1.94l-0.05-0.14c-0.07-0.17-0.14-0.35-0.21-0.53    c-0.65-1.73-1.21-3.54-1.68-5.39l-0.11-0.47c-0.2-0.82-0.38-1.65-0.54-2.48l-0.06-0.31c-0.36-1.9-0.62-3.85-0.78-5.79    c0-0.03-0.01-0.1-0.01-0.13c-0.47-5.82-0.02-11.46,1.29-16.29c0.8-3.2,1.96-5.84,3.51-8.07c1.03-1.57,2.21-2.94,3.5-4.09    c-0.27-0.77-0.53-1.54-0.79-2.3c-0.01-0.03-0.02-0.06-0.03-0.09l-0.42-1.26c-0.3-0.86-3.53-10.19-6.08-20.35    c-4.25-16.96-4.26-26.27,0.19-31.88c2.03-3.44,5.11-5.85,8.85-6.87c2.99-0.82,5.77-1.05,8.34-0.89c0.02-0.05,0.03-0.1,0.05-0.16    l0.19-0.62c0.15-0.49,0.31-1,0.48-1.51l0.24-0.73c0.19-0.56,0.38-1.11,0.58-1.66c0.02-0.06,0.03-0.11,0.05-0.17    c2.65-8.47,5.45-15.1,8.38-19.86c-2.59-4.4-4-9.45-4-14.68c0-0.82,0.04-1.67,0.13-2.6c0.02-0.26,0.05-0.53,0.08-0.79    c0.07-0.63,0.17-1.25,0.28-1.87c0.07-0.38,0.15-0.77,0.24-1.15c0.13-0.58,0.27-1.12,0.43-1.66c0.12-0.43,0.27-0.88,0.43-1.33    c0.1-0.29,0.18-0.51,0.26-0.72c3.4-9.13,11.38-16.05,20.88-18.14c1.8-0.52,3.66-0.75,5.52-0.66c0.23-0.01,0.46-0.02,0.69-0.02    c11.14,0,21.42,6.53,26.18,16.64c0.04,0.08,0.11,0.23,0.18,0.37c0.23,0.5,0.43,0.98,0.62,1.47c0.11,0.29,0.22,0.59,0.33,0.89    l0.05,0.15c0.13,0.38,0.26,0.76,0.38,1.15c0.21,0.69,0.4,1.42,0.56,2.17c0.06,0.29,0.11,0.55,0.15,0.81l0.02,0.1    c0.1,0.55,0.2,1.16,0.27,1.76c0.04,0.31,0.07,0.57,0.09,0.84c0.08,0.88,0.12,1.7,0.13,2.49c0,0.04,0,0.08,0,0.12    c0,5.85-1.79,11.57-5.07,16.37L279.3,75.5c0.15-0.03,0.29-0.06,0.43-0.09c0.2-0.04,0.45-0.08,0.71-0.13    c0.22-0.04,0.46-0.07,0.69-0.11c0.26-0.04,0.5-0.06,0.75-0.09l0.92,7.81l-0.79-7.83c0.21-0.02,0.43-0.04,0.64-0.06    c0.35-0.02,0.64-0.03,0.93-0.04c0.84-0.03,1.49-0.01,2.24,0.04c0.16,0.01,0.38,0.03,0.6,0.05c0.3,0.03,0.63,0.06,0.97,0.11    c0.26,0.04,0.43,0.06,0.6,0.09c0.4,0.07,0.73,0.12,1.05,0.19c0.27,0.06,0.49,0.1,0.71,0.16c0.25,0.05,0.56,0.13,0.88,0.22    c0.29,0.08,0.52,0.14,0.75,0.21c0.27,0.08,0.6,0.18,0.93,0.29c0.24,0.08,0.44,0.14,0.64,0.21c0.34,0.12,0.7,0.25,1.06,0.39    c0.19,0.07,0.34,0.13,0.49,0.19c0.53,0.21,1.03,0.42,1.54,0.65c0.03,0.01,0.06,0.02,0.08,0.04c13.89,6.25,9.67,25.98,8.28,32.46    c-2.01,9.38-5.56,20.11-8.83,29.53c1.88,0.97,3.65,2.29,5.27,3.93c0.03,0.03,0.07,0.07,0.1,0.1c0.05,0.05,0.1,0.1,0.15,0.16    c4.22,4.41,7.25,11.04,8.3,18.17c0.12,0.78,0.21,1.57,0.28,2.36c0.14,1.6,0.18,3.22,0.12,4.82c-0.03,0.82-0.09,1.65-0.17,2.47    c-0.77,7.39-3.69,14.08-8.45,19.35c-3.31,3.66-7.42,6.57-12.26,8.69c-0.12,6.83-0.29,15.05-0.52,22.98l-0.3,9.26    c3.88,1.04,7.79,2.83,11.06,5.79c1.83,1.65,3.33,3.58,4.46,5.71c0.09,0.16,0.17,0.32,0.24,0.48c0.29,0.58,0.55,1.17,0.78,1.74    c0.07,0.19,0.15,0.4,0.23,0.62c0.22,0.62,0.39,1.19,0.54,1.76c0.07,0.26,0.14,0.54,0.2,0.83c0.12,0.54,0.22,1.09,0.3,1.66    c0.05,0.34,0.09,0.6,0.12,0.88c0.07,0.6,0.1,1.21,0.12,1.83c0.01,0.24,0.03,0.51,0.03,0.79c0,0.91-0.03,1.77-0.1,2.63    c-0.62,7.08-2.4,12.71-3.68,16.33c-0.15,0.44-0.31,0.87-0.47,1.29c-0.36,0.98-0.72,1.92-1.08,2.84l-0.32,0.83    c-2.4,6.14-3.15,8.54-2.23,11.32c1.06,2.99,10.15,19.72,14.02,26.87l4.7,8.65c2.93,5.4,6.06,11.14,9.26,17.06    c5.19,9.6,9.63,17.89,13.56,25.33c2.25,4.27,4.48,8.53,6.64,12.73c1.08,2.1,2.15,4.18,3.2,6.24c0.52,1.03,1.04,2.05,1.56,3.07    c1.54,3.06,3.04,6.06,4.47,8.98c4.07,8.31,7.39,15.52,9.88,21.43c0.68,1.61,1.31,3.15,1.88,4.62c0.6,1.52,1.14,2.96,1.61,4.29    c0,0,0,0,0,0c2.49,7.02,3.37,11.63,2.95,15.42c-0.57,5.15-2.98,10.6-7.15,16.21c-0.32,0.43-0.65,0.86-0.99,1.29    c-0.66,0.83-1.37,1.69-2.12,2.54c-0.37,0.42-0.75,0.84-1.14,1.26c-6.05,6.53-14.21,12.77-23.6,18.07    c-0.66,0.37-1.33,0.74-2.01,1.11c-16.33,8.82-36.08,14.82-57.11,17.34c-1.05,0.13-2.11,0.24-3.17,0.35    c-6.52,0.67-13.27,1.03-20.06,1.06C254.36,503.35,254.03,503.35,253.69,503.35z M159.86,450.26c-0.11,1.31,0.69,4.44,4.37,8.49    c0.01,0.01,0.06,0.07,0.07,0.08c3.83,4.18,11.46,10.19,26.31,15.31c0.62,0.21,1.25,0.43,1.89,0.63c3.12,1.02,6.49,1.97,10.01,2.83    c0.9,0.22,1.8,0.43,2.73,0.64c11.63,2.62,24.97,4.27,39.66,4.91c3.25,0.14,6.51,0.21,9.7,0.19c6.14-0.03,12.23-0.35,18.1-0.96    c0.96-0.1,1.91-0.2,2.85-0.32c18.55-2.22,35.84-7.44,49.99-15.08c0.57-0.31,1.13-0.62,1.68-0.93c7.62-4.3,14.1-9.22,18.76-14.25    c0.27-0.3,0.54-0.59,0.8-0.89c0.51-0.58,0.99-1.16,1.44-1.72c0.23-0.29,0.43-0.56,0.63-0.83c2.55-3.43,3.15-5.53,3.29-6.26    c-0.06-0.52-0.35-2.41-1.89-6.75c-0.4-1.12-0.86-2.35-1.37-3.66c-0.52-1.32-1.09-2.71-1.7-4.16c-2.35-5.57-5.51-12.43-9.42-20.4    c-1.4-2.85-2.85-5.78-4.36-8.77c-0.5-1-1.01-2-1.53-3.01c-1.03-2.03-2.08-4.08-3.15-6.14c-2.14-4.14-4.33-8.34-6.56-12.56    c-3.9-7.38-8.3-15.61-13.46-25.15c-3.2-5.92-6.31-11.64-9.24-17.02l-4.71-8.67c-10.71-19.73-14.31-26.76-15.42-30.09    c-3.3-9.89-0.18-17.87,2.57-24.91l0.31-0.81c0.32-0.82,0.64-1.65,0.96-2.52c0.13-0.34,0.25-0.69,0.38-1.04    c1-2.81,2.19-6.64,2.61-11.39c0.02-0.2,0.03-0.42,0.03-0.65l-0.01-0.28c0-0.13-0.01-0.24-0.02-0.34l-0.03-0.18    c-0.01-0.09-0.02-0.17-0.04-0.24c-0.04-0.14-0.05-0.18-0.06-0.22c0-0.01-0.03-0.09-0.04-0.1l0.03,0.07l8.87-4.63l-8.92,4.53    c-0.01-0.02-0.03-0.06-0.04-0.09c-0.04-0.05-0.1-0.13-0.2-0.22c-1.03-0.93-3.96-1.9-8.17-1.96c-2.72-0.04-5.3-1.18-7.16-3.17    c-1.86-1.99-2.82-4.64-2.68-7.36c0.04-0.7,0.07-1.41,0.11-2.15c0.04-0.85,0.08-1.73,0.12-2.62c0.04-0.89,0.08-1.82,0.11-2.75    l0.35-10.42c0.31-10.78,0.52-22.09,0.63-29.67c0.07-4.36,2.95-8.17,7.12-9.43c1.19-0.36,2.14-0.66,2.98-0.95    c3.04-1.04,5.46-2.54,7.19-4.45c1.93-2.13,3.07-4.83,3.4-8.02c0.04-0.39,0.07-0.77,0.08-1.16c0.03-0.77,0.01-1.55-0.06-2.33    c-0.03-0.39-0.08-0.78-0.13-1.15c-0.52-3.53-1.85-6.04-2.88-7.17c-0.04-0.04-0.07-0.07-0.1-0.11c-0.01-0.01-0.02-0.03-0.04-0.04    c-3.43,1.84-7.69,1.56-10.83-0.83c-3.42-2.6-4.83-7.08-3.45-11.15c0.78-2.29,1.66-4.79,2.58-7.43c3.06-8.75,6.54-18.67,8.84-27.59    c2.35-9.11,2.48-13.54,2.33-15.43c-0.12-0.04-0.2-0.06-0.28-0.09l-1.41-0.27c-0.02,0-0.04,0-0.06,0l-0.31,0.01    c-0.03,0-0.07,0.01-0.08,0.01l-0.26,0.03c-0.02,0-0.14,0.03-0.16,0.03l-1.04,0.3c-1.11,0.39-2.51,1.05-3.97,1.75    c-2.4,1.15-5.16,1.3-7.67,0.41c-2.51-0.89-4.56-2.75-5.7-5.15l-16.92-35.83c-1.96-4.15-0.85-9.09,2.7-12    c0.46-0.38,0.88-0.79,1.24-1.24c0.92-1.12,2.02-3,2.04-5.62c0-0.02,0-0.04,0-0.07c0-0.21-0.01-0.47-0.04-0.8l-0.02-0.21    c-0.03-0.23-0.06-0.41-0.09-0.58l-0.06-0.35c-0.04-0.2-0.1-0.4-0.15-0.59l-0.14-0.4c-0.03-0.08-0.06-0.18-0.1-0.28    c-0.05-0.13-0.1-0.26-0.15-0.38l-0.07-0.15c-1.47-3.13-4.57-5.14-7.94-5.2c-0.2,0.01-0.36,0.02-0.52,0.03    c-0.26,0.01-0.52,0.01-0.77,0c-0.21,0.06-0.42,0.1-0.63,0.15c-3,0.59-5.53,2.76-6.61,5.66l-0.1,0.26    c-0.02,0.07-0.07,0.22-0.12,0.36c-0.06,0.19-0.1,0.36-0.13,0.53c-0.02,0.09-0.05,0.21-0.07,0.33c-0.04,0.2-0.07,0.39-0.09,0.58    l-0.03,0.24c-0.03,0.34-0.05,0.6-0.05,0.81c0,2.64,1.17,5.13,3.2,6.85c3.79,3.19,4.67,8.67,2.08,12.88    c-0.22,0.36-0.45,0.73-0.68,1.12c-0.7,1.16-1.62,2.17-2.71,2.96c-1.45,1.78-4.09,7.69-6.19,13.69c-0.12,0.67-0.3,1.33-0.56,1.98    c-0.24,0.6-0.47,1.21-0.7,1.82c-0.01,0.03-0.02,0.06-0.04,0.1c-0.17,0.47-0.34,0.96-0.51,1.44l-0.16,0.48    c-0.15,0.45-0.27,0.84-0.39,1.22l-0.14,0.43c-0.14,0.48-0.28,0.96-0.41,1.44L229,84.46c-0.09,0.36-0.18,0.72-0.26,1.09l-0.08,0.36    c-0.1,0.47-0.19,0.91-0.27,1.35l-0.05,0.31c-0.06,0.35-0.11,0.69-0.15,1.02l-0.04,0.33c-0.04,0.36-0.08,0.72-0.1,1.07    c-0.2,3.29-2.02,6.27-4.85,7.96c-2.83,1.69-6.31,1.88-9.31,0.5c-1.87-0.86-3.14-1.3-4.15-1.46c0.1,5.83,3.59,20.3,8.18,33.4    c0.02,0.05,0.04,0.13,0.06,0.18l0.4,1.19c0.01,0.02,0.02,0.05,0.02,0.07c1.23,3.65,2.56,7.38,3.94,11.09    c1.26,3.38,0.61,7.17-1.71,9.93c-1.91,2.27-4.7,3.55-7.61,3.57c-0.1,0.24-0.25,0.65-0.4,1.28c-0.02,0.09-0.04,0.17-0.07,0.26    c-0.71,2.59-0.95,5.97-0.67,9.53c0,0.02,0.01,0.08,0.01,0.11c0.1,1.2,0.27,2.46,0.5,3.69l0.04,0.2c0.1,0.53,0.21,1.04,0.34,1.56    l0.07,0.31c0.28,1.12,0.62,2.21,1,3.22l0.15,0.39c0.14,0.36,0.29,0.71,0.45,1.06l0.18,0.4c0.24,0.5,0.44,0.91,0.63,1.25    c0.01,0.01,0.01,0.03,0.02,0.04c1.57,2.74,6.69,5.21,13.72,6.61c4.2,0.84,7.41,4.26,7.96,8.51l0.21,1.59    c0.03,0.24,0.05,0.47,0.07,0.71c0.01,0.19,0.04,0.74,0.09,1.66c0.32,5.82,1.6,25.9,4.43,39.89c0.6,2.96-0.17,6.04-2.1,8.37    s-4.84,3.69-7.83,3.62c-1.3-0.01-2.52,0.08-3.62,0.3c-0.03,0.01-0.05,0.01-0.11,0.02c-2.95,0.6-4.07,1.87-4.73,2.9    c-0.09,0.14-0.17,0.29-0.26,0.44l-0.1,0.2c-0.08,0.15-0.14,0.27-0.19,0.4l-0.09,0.21c-0.01,0.01-0.04,0.08-0.04,0.1    c-0.21,0.5-0.39,1.01-0.54,1.57c-0.02,0.08-0.04,0.16-0.07,0.24l-0.01,0.05c0,0.02-0.01,0.03-0.01,0.04l-0.12,0.46    c-0.09,0.32-0.17,0.63-0.25,0.93l-0.1,0.45c-0.07,0.29-0.13,0.57-0.19,0.85l-0.08,0.44c-0.05,0.29-0.1,0.58-0.15,0.86l-0.06,0.38    c-0.04,0.32-0.08,0.62-0.11,0.91l-0.04,0.31c-0.04,0.37-0.07,0.74-0.09,1.11c0,0.03-0.01,0.08-0.01,0.13    c-0.04,0.77-0.06,1.57-0.03,2.36c0.02,0.63,0.05,1.25,0.11,1.83c0.01,0.13,0.02,0.26,0.03,0.39c0.39,7.27,2.85,12.57,4.47,14.02    c0.67,0.59,1.25,1.28,1.74,2.03c0.36,0.56,0.73,1.1,1.08,1.62c3.85,5.56,2.15,12.54-2.85,25.15c-3.13,7.89-7.92,18.58-14.65,32.69    c-0.03,0.07-0.07,0.14-0.1,0.21c-7.74,15.29-16.62,33.36-24.37,49.6c-0.02,0.05-0.05,0.1-0.07,0.14    c-2.83,5.69-5.58,11.23-8.19,16.52l-0.66,1.34c-6.38,12.95-10.51,21.6-13.39,28.05c-0.01,0.02-0.02,0.04-0.02,0.05l-2.51,5.85    c-0.13,0.32-0.26,0.65-0.39,0.97l-0.12,0.31c0,0-0.04,0.09-0.04,0.09c-0.12,0.32-0.24,0.62-0.34,0.9l-0.06,0.16    c-0.12,0.32-0.2,0.56-0.28,0.79c0,0.01-0.04,0.12-0.05,0.13c-0.09,0.26-0.15,0.46-0.21,0.65l-0.06-0.02    c0,0.04-0.01,0.07-0.01,0.11l0.04,0.01c-0.03,0.1-0.06,0.19-0.08,0.27L159.86,450.26z M159.87,450.16L159.87,450.16    C159.87,450.16,159.87,450.15,159.87,450.16C159.87,450.15,159.87,450.15,159.87,450.16z M155.89,448.79h0.24l-5.78-1.62    L155.89,448.79z M352.15,442.29C352.15,442.29,352.15,442.29,352.15,442.29C352.15,442.29,352.15,442.29,352.15,442.29z     M286.2,254.52c0,0.01,0,0.01,0,0.02L286.2,254.52z M293.84,150.84h0.01H293.84z M284.47,94.98c0.02,0,0.04,0,0.06,0    C284.51,94.98,284.49,94.98,284.47,94.98z M284.31,94.96C284.31,94.96,284.32,94.96,284.31,94.96L284.31,94.96z M282.89,83.97    l0.12,1.06l-0.11-1.07L282.89,83.97z M237.54,61.84C237.53,61.84,237.53,61.84,237.54,61.84    C237.53,61.84,237.53,61.84,237.54,61.84z M238.36,61.21L238.36,61.21L238.36,61.21z"/></g><g><g><g><path class="st80" d="M236.75,46.36c0,0-23.14,33.43-18,50.14c5.14,16.71,49.3,11.57,49.3,11.57l7.27-17.59L256,49.58"/></g><g><path class="st81" d="M256,49.58l-5.59-0.93c2.04,0.93,3.8,2.42,4.86,4.37c4.86,8.91,4.73,21.52-2.67,29.11      c-8.68,8.9-24,5.01-30.26-4.87c-0.37-0.58-0.69-1.18-0.99-1.78c-2.81,7.63-4.36,15.31-2.6,21.03      c5.14,16.71,49.3,11.57,49.3,11.57l7.27-17.59L256,49.58z"/></g></g><g><g><g><path class="st82" d="M274.68,240.81c0,0,22.97-2.23,21.45,15.13s-11.16,25.07-7.31,36.64s75.21,133.07,73.29,150.43       c-1.93,17.36-43.71,53.36-117.64,50.14c-73.93-3.21-96.43-30.21-94.5-44.36s75.86-148.5,70.07-156.86       c-5.79-8.36-12.86-21.86-7.07-39.21s27.64-10.83,27.64-10.83"/></g></g><g><g><path class="st83" d="M240.06,242.27c0.82,0.45,1.65,0.9,2.5,1.31c0.39,0.19,0.78,0.37,1.17,0.55c0.7,0.12,1.5,0.43,2.19,0.61       c0.07,0.02,0.27,0.05,0.51,0.08c0.34,0.03,1.85,0.21,1.83,0.21c1.37,0.13,2.74,0.24,4.12,0.3c3,0.14,6.03,0.11,9.02-0.19       c-0.32-0.01,2.6-0.48,3.2-0.63c0.53-0.14,3.09-1.09,3.02-0.96c0.71-0.41,1.72-1.04,2.15-1.28c0.21-0.23,0.55-0.56,0.77-0.78       c0.04-0.07,0.08-0.14,0.14-0.23c0.08-0.12,0.14-0.23,0.19-0.32l-30.25,0.96c0,0-0.21-0.06-0.59-0.16       C240.03,241.91,240.05,242.09,240.06,242.27z"/></g><g><path class="st83" d="M169.07,406.14c-0.22,0.45-0.45,0.91-0.67,1.36c1.31,1.64,2.15,3.78,2.23,6.41       c0.47,0.17,0.93,0.36,1.37,0.59C170.99,411.71,170,408.93,169.07,406.14z"/></g><g><path class="st83" d="M288.82,292.58c-3.86-11.57,5.79-19.29,7.31-36.64c0.44-5.02-1.17-8.39-3.68-10.66       c-2.08,7.81-7.3,14.39-15.14,17.99c-9.64,4.42-20.65,4.81-31.04,3.6c-8.71-1.02-16.55-4.23-23.66-9.43       c-3.22-2.36-6.29-5.19-7.7-8.84c-0.76,1.2-1.42,2.57-1.94,4.14c-1.66,4.97-2.25,9.61-2.14,13.92c1.23,0.52,2.41,1.22,3.51,2.07       c8.16,6.38,20.13,9.18,30.29,9.66c11.73,0.56,23.45-2.6,32.71,7.05c5.1,5.31,7.53,12.68,9.91,19.85       c4.57,9.87,8.87,19.86,12.99,29.92c2.41,4.93,4.82,9.85,7.11,14.83c0.36,0.78,0.63,1.59,0.84,2.4       c15.65,26.75,28.83,55.05,32.16,86.09c0.64,5.96-5.56,11.03-11.03,11.03c-6.42,0-10.39-5.11-11.03-11.03       c-0.04-0.36-0.09-0.72-0.13-1.08c-2.68-1.38-4.8-3.88-5.9-6.92c-8.94-24.69-17.57-49.53-27.13-73.99       c-4.7-7.62-9.52-15.08-14.18-22.38c-1.01-1.59-1.55-3.15-1.72-4.65c-4.33,3.72-9.78,6.53-14.91,8.43       c-5.66,2.11-12.57,2.88-18.06-0.15c-0.11-0.06-0.21-0.13-0.31-0.19c-3.92,1.19-7.99,1.48-11.98,0.25       c-2.64-0.81-4.95-2.31-6.82-4.25c-3.19,9.34-5.54,19.08-8.08,28.03c-1.37,4.83-2.91,9.59-4.48,14.35       c2.16-1.36,4.36-3.71,5.78-6.24c1.82-3.24,2.59-7.71,2.23-9.94c-0.96-5.9,1.45-11.85,7.7-13.57c5.3-1.46,12.61,1.82,13.57,7.7       c2.67,16.42-4.56,34.68-20.19,42.16c-5.28,2.53-10.77,3.57-16.22,3.11c-0.33,1.33-0.63,2.68-0.89,4.04       c5.34,13.09,8.7,27.1,10.38,40.95c1.39,0.11,2.78,0.18,4.17,0.17c6.01-0.04,10.77-1.24,16.19-5.09       c4.88-3.47,12.28-0.84,15.09,3.96c3.2,5.46,0.89,11.64-3.96,15.09c-26.08,18.53-67.86,4.57-83.6-22.44       c-2.83,6.32-4.61,10.88-4.89,12.92c-1.93,14.14,20.57,41.14,94.5,44.36c73.93,3.21,115.71-32.79,117.64-50.14       C364.04,425.65,292.68,304.15,288.82,292.58z"/></g></g></g><g><g><path class="st82" d="M215.54,153.08c0,0-25.07-61.71-10.93-65.57c14.14-3.86,20.39,12.86,46.19,8.36s27.09-15.31,41.24-8.94      c14.14,6.37-12.86,63.58-13.5,73.87c-0.64,10.29,0.64,21.86,0.64,21.86s-0.64,62.36-2.57,70.07c-1.93,7.71-34.07,14.79-40.5,0      s-7.71-62.36-12.86-75.86"/></g><g><path class="st83" d="M278.54,160.79c0.64-10.29,27.64-67.5,13.5-73.87c-6.14-2.76-9.86-2.29-14.21-0.5      c0.07,0.36,0.12,0.72,0.16,1.09c0.7,6.08,1.22,12.21,0.85,18.33c-0.92,15.03-6.74,27.35-19.46,35.08      c-11.37,6.91-26.7,8.89-38.69,2.46c-3.87-2.08-7.19-4.93-9.93-8.28c-0.78-0.44-1.54-0.9-2.28-1.39      c3.62,10.88,7.07,19.37,7.07,19.37l7.71,23.79c0.96,2.51,1.78,6.21,2.53,10.66c1.73-1.74,3.67-3.22,5.84-4.35      c7.32-3.83,15.19-2.38,21.68,1.93c1.13-0.4,2.28-0.62,3.38-0.62c6.52,0,10.25,5.12,11.03,11.03c-0.27-2.05,0.22,1.3,0.28,1.69      c0.13,0.85,0.27,1.69,0.4,2.54c0.43,2.76,0.83,5.53,1.18,8.31c0.55,4.35,0.94,8.74,0.58,13.12      c-0.82,9.98-4.89,19.94-14.33,24.67c-5.47,2.74-10.95,2.74-16.01,0.98c-1.94-0.33-3.78-1.16-5.21-2.49      c-0.4-0.25-0.8-0.52-1.2-0.79c0.79,3.71,1.68,6.86,2.7,9.19c6.43,14.79,38.57,7.71,40.5,0c1.93-7.71,2.57-70.07,2.57-70.07      S277.9,171.08,278.54,160.79z"/></g></g><g><g><path class="st84" d="M343.1,441.54c0.43-1.13,0.69-2.08,0.78-2.83c0.58-2.68,0.76-5.34,0.87-7.92      c0.64-14.79-53.39-107.36-53.39-107.36h-70.71c0,0-52.03,105.43-49.46,122.79c1.01,6.84,5.52,13.99,14.96,19.54l0,0      c0,0,13.61,11.96,75.68,12.6c45.37,0.47,67.81-16.82,76.93-29.21C340.88,446.64,342.23,444.09,343.1,441.54z"/></g><g><path class="st85" d="M291.36,323.44h-9.95c5.79,16.32,11.21,32.78,13.58,50c2.68,19.48,1.24,39.61-11.68,55.38      c-10.19,12.43-26.41,17.22-41.91,17.92c-23.21,1.05-46.12-5.47-68.17-13.16c-1.62,5.69-2.42,10.11-2.04,12.64      c1.01,6.84,5.52,13.99,14.96,19.54c0,0,13.61,11.96,75.68,12.6c45.37,0.47,67.81-16.82,76.93-29.21      c2.13-2.52,3.48-5.07,4.35-7.62c0.43-1.13,0.69-2.08,0.78-2.83c0.58-2.68,0.76-5.34,0.87-7.92      C345.4,416.01,291.36,323.44,291.36,323.44z"/></g></g><g><ellipse class="st86" cx="256" cy="323.44" rx="35.36" ry="13.5"/></g><g><g><path class="st80" d="M216.82,147.94c0,0,7.71,12.86,37.93,10.29s22.5-12.21,34.07-10.29c11.57,1.93,19.93,34.71-6.43,43.71      c-26.36,9-66.86,9-75.86-7.07S201.42,138.98,216.82,147.94z M216.82,147.94c0,0,7.71,12.86,37.93,10.29s22.5-12.21,34.07-10.29      c11.57,1.93,19.93,34.71-6.43,43.71c-26.36,9-66.86,9-75.86-7.07S201.42,138.98,216.82,147.94z M216.82,147.94      c0,0,7.71,12.86,37.93,10.29s22.5-12.21,34.07-10.29c11.57,1.93,19.93,34.71-6.43,43.71c-26.36,9-66.86,9-75.86-7.07      S201.42,138.98,216.82,147.94z M216.82,147.94c0,0,7.71,12.86,37.93,10.29s22.5-12.21,34.07-10.29      c11.57,1.93,19.93,34.71-6.43,43.71c-26.36,9-66.86,9-75.86-7.07S201.42,138.98,216.82,147.94z M245.25,18.65      c-10.46,0-18.95,8.48-18.95,18.95s8.48,18.95,18.95,18.95s18.95-8.48,18.95-18.95S255.72,18.65,245.25,18.65z"/></g><g><path class="st81" d="M226.31,37.6c0-3.57,1-6.89,2.72-9.74c-0.01,0.04-0.03,0.07-0.04,0.11c-1.2,2.26-1.57,4.86-0.93,7.83      c1.16,5.46,4.86,9.35,9.53,11.14c1.06,0.46,2.17,0.83,3.32,1.07c2.25,0.47,4.64,0.3,6.79-0.46C253.74,46.07,259.4,41,261.11,35      c0.72-2.51,0.71-5.11,0.12-7.55c1.87,2.94,2.97,6.41,2.97,10.15c0,10.46-8.48,18.95-18.95,18.95S226.31,48.06,226.31,37.6z       M288.82,147.94c-1.16-0.19-2.12-0.27-2.95-0.25c1.56,4.53,1.35,9.74,0.29,14.32c-2.65,11.53-12.94,18.64-24.12,20.48      c-11.63,1.92-23.78,0.24-34.97-3.25c-8.72-2.72-18.65-6.64-25.29-13.33c0.18,6.43,1.74,13.3,4.75,18.66      c9,16.07,49.5,16.07,75.86,7.07S300.4,149.86,288.82,147.94z"/></g></g><g><g><path class="st6" d="M250.8,25.67c0,3.88-3.15,7.03-7.03,7.03s-7.03-3.15-7.03-7.03s3.15-7.03,7.03-7.03      S250.8,21.79,250.8,25.67z M241.9,59.74c8.04-0.13,8.92-4.03,8.92-4.03c-12.62,2.92-18.48-2.42-18.48-2.42      c-5.06,3.07-10.98,22.18-10.98,22.18C223.87,66.99,233.86,59.86,241.9,59.74z M208.92,135.04c0,0-3.34-26.31,3.73-33.06      s9.32-1.29,31.13,0.96s28.01-9.96,28.01-9.96s-21.54,7.71-39.21,4.18s-25.07-12.21-31.19-6.66s7.08,43.21,7.08,43.21       M212,154.04c9.09-1.26,7.39,10.61,34.66,11.25c27.27,0.64,33.82-12.31,33.82-12.31s-16.74,9.42-43.09,6.09      c-26.36-3.33-17.04-11.14-27.32-11.39c-10.29-0.25-7.93,22.77-7.93,22.77S202.92,155.3,212,154.04z M227.25,197.71      c0,0,0.03,0.59,0.09,1.66c0.5,9.06,3.27,52.24,10.72,56.43c8.33,4.69,20.98,5.25,20.98,5.25s-15.22-1.71-20.36-19.16       M231.98,240.81c0,0-15.56-1.72-19.54,13.61c-3.97,15.34,0.28,30.25,6.35,35.65s1.22,17.71-3.57,24.36      c-4.79,6.65-51.79,101.3-59.32,123.13s5,26.01,5,26.01s3.54-30.66,12.86-53.26c9.32-22.6,45.32-89.78,51.75-105.21      c6.43-15.43,45.36-14.46,45.36-14.46s-17.07-1.61-34.43-4.82s-23.46-23.79-18.96-28.93c4.5-5.14-1.88,2.87,22.55,6.43      s30.84-0.32,30.84-0.32s-25.43,4.82-36.36-5.79C223.57,246.61,231.98,240.81,231.98,240.81z"/></g><g class="st11"><path class="st6" d="M235.29,336.94c0,4.44-3.6,8.04-8.04,8.04c-4.44,0-8.04-3.6-8.04-8.04s3.6-8.04,8.04-8.04      C231.69,328.89,235.29,332.49,235.29,336.94z M176.97,434.87c-4.2,23.95,11.56,28.71,11.56,28.71s-5.57-8.14,1.71-39.43      c7.29-31.29,37-71.99,37-71.99c-17.43,3.44-15.08-7.18-15.08-7.18S181.17,410.93,176.97,434.87z"/></g></g><g><g><path class="st6" d="M213.29,159.33c-6.43,0-6.45,10,0,10C219.72,169.33,219.73,159.33,213.29,159.33z"/></g><g><path class="st6" d="M208.47,173.9c-2.57,0-2.58,4,0,4C211.04,177.9,211.04,173.9,208.47,173.9z"/></g><g><path class="st6" d="M223.9,259.19c-4.5,0-4.51,7,0,7C228.4,266.19,228.41,259.19,223.9,259.19z"/></g><g><path class="st6" d="M224.86,272.26c-2.57,0-2.58,4,0,4C227.43,276.26,227.44,272.26,224.86,272.26z"/></g><g><path class="st6" d="M235.47,35.54c-1.93,0-1.93,3,0,3C237.4,38.54,237.4,35.54,235.47,35.54z"/></g><g class="st34"><path class="st6" d="M329,437.9c-9.02,0-9.01-14,0-14C338.02,423.9,338.01,437.9,329,437.9z M322.25,446.26c-2.57,0-2.58,4,0,4      C324.82,450.26,324.83,446.26,322.25,446.26z"/></g></g></g></g></svg>